<svg width="115" height="115" viewBox="0 0 115 115" fill="none" xmlns="http://www.w3.org/2000/svg">
<path opacity="0.3" d="M57.4999 19.1667C77.0499 19.1667 93.1979 33.7813 95.5458 52.7084H76.0916C73.9354 44.4188 66.4124 38.3334 57.4999 38.3334C48.5874 38.3334 41.0645 44.4188 38.9562 52.7084H19.4541C21.802 33.7813 37.9499 19.1667 57.4999 19.1667Z" fill="#FF0000"/>
<path d="M95.5458 54.2083H97.2433L97.0343 52.5236C94.5942 32.8526 77.8144 17.6666 57.4999 17.6666C37.1855 17.6666 20.4057 32.8526 17.9655 52.5236L17.7565 54.2083H19.4541H38.9562H40.1224L40.4099 53.078C42.352 45.4419 49.2851 39.8333 57.4999 39.8333C65.7132 39.8333 72.6515 45.4415 74.6399 53.0859L74.9318 54.2083H76.0916H95.5458ZM19.4541 60.7916H17.7565L17.9655 62.4762C20.4057 82.1472 37.1855 97.3333 57.4999 97.3333C77.8129 97.3333 94.5979 82.1473 96.9394 62.4688L97.139 60.7916H95.4499H75.9958H74.8295L74.542 61.9219C72.5999 69.5579 65.6668 75.1666 57.452 75.1666C49.2372 75.1666 42.3041 69.5579 40.362 61.9219L40.0745 60.7916H38.9083H19.4541ZM11.0833 57.4999C11.0833 31.8783 31.8783 11.0833 57.4999 11.0833C83.1215 11.0833 103.917 31.8783 103.917 57.4999C103.917 83.1215 83.1215 103.917 57.4999 103.917C31.8783 103.917 11.0833 83.1215 11.0833 57.4999ZM57.4999 68.5833C63.5992 68.5833 68.5833 63.5992 68.5833 57.4999C68.5833 51.4007 63.5992 46.4166 57.4999 46.4166C51.4007 46.4166 46.4166 51.4007 46.4166 57.4999C46.4166 63.5992 51.4007 68.5833 57.4999 68.5833Z" stroke="black" stroke-width="3"/>
</svg>
